# xmcd
#
# Track frame offsets: 
#        150
#        12831
#        23101
#        33070
#        43290
#        55191
#        66654
#        76356
#        88202
#        100272
#        110402
#        122150
#        134114
#        144851
#        155511
#        164907
#        176636
#        187754
#        199671
#        212588
#        223680
#        235184
#        244469
#        254833
#        265722
#        275922
#        286019
#        296986
#        307902
#        319577
#        329522
#        339760
#
# Disc length: 4654 seconds
#
# Revision: 0
# Processed by: cddbd v1.5.2PL0 Copyright (c) Steve Scherf et al.
# Submitted via: ExactAudioCopyFreeDBPlugin 1.0
#
DISCID=ed122c20
DTITLE=Chet Atkins - The Early Years - 1946-1949 B
DYEAR=1900
DGENRE=Country
TTITLE0=Boogie Man Boogie
TTITLE1=Main Street Breakdown
TTITLE2=Confusin'
TTITLE3=Music in My Heart
TTITLE4=Indian Love Call
TTITLE5=Birth of the Blues
TTITLE6=Mountain Melody
TTITLE7=You're Always Brand New
TTITLE8=My Crazy Heart
TTITLE9=Hybrid Corn
TTITLE10=Jitterbug Waltz
TTITLE11=One-Man Boogie
TTITLE12=Crazy Rhythm
TTITLE13=Crazy Rhythm 2
TTITLE14=Rustic Dance
TTITLE15=Rainbow
TTITLE16=In the Mood
TTITLE17=Spanish Fandango
TTITLE18=Midnight
TTITLE19=Good-Bye Blues
TTITLE20=Your Mean Little Heart
TTITLE21=Sweet Bunch of Daisies
TTITLE22=Blue Gypsy
TTITLE23=The Third Man Theme
TTITLE24=St. Louis Blues
TTITLE25=Nobody's Sweetheart
TTITLE26=Lover Come Back to Me
TTITLE27=Stephen Foster Melody
TTITLE28=Hangover Blues
TTITLE29=Imagination
TTITLE30=Black Mountain Rag
TTITLE31=Guitar Polka
EXTD=
EXTT0=
EXTT1=
EXTT2=
EXTT3=
EXTT4=
EXTT5=
EXTT6=
EXTT7=
EXTT8=
EXTT9=
EXTT10=
EXTT11=
EXTT12=
EXTT13=
EXTT14=
EXTT15=
EXTT16=
EXTT17=
EXTT18=
EXTT19=
EXTT20=
EXTT21=
EXTT22=
EXTT23=
EXTT24=
EXTT25=
EXTT26=
EXTT27=
EXTT28=
EXTT29=
EXTT30=
EXTT31=
PLAYORDER=
